<?xml version="1.0" encoding="UTF-8"?>
<svg id="_圖層_2" data-name="圖層 2" xmlns="http://www.w3.org/2000/svg" xmlns:xlink="http://www.w3.org/1999/xlink" viewBox="0 0 917.07 561.7">
  <defs>
    <style>
      .cls-1 {
        fill: url(#linear-gradient);
      }
    </style>
    <linearGradient id="linear-gradient" x1="-20.53" y1="280.85" x2="946.06" y2="280.85" gradientUnits="userSpaceOnUse">
      <stop offset="0" stop-color="#d88979"/>
      <stop offset=".3" stop-color="#a15343"/>
      <stop offset=".37" stop-color="#ffebd8"/>
      <stop offset="1" stop-color="#b56449"/>
    </linearGradient>
  </defs>
  <g id="_圖層_3" data-name="圖層 3">
    <path class="cls-1" d="M146.42,66.77c3.63,97.2,61.94,107.83,123.68,119.08,67.82,12.36,144.7,26.37,161.85,160.68,21.4,167.59,147.09,168.16,268.63,168.71,69.53.32,141.43.64,192.01,32.79,6.93,4.41,13.57,8.95,19.97,13.66h4.5c-7.35-5.52-14.98-10.83-23.02-15.94-51.24-32.57-123.53-32.9-193.45-33.21-60.29-.28-122.64-.56-171.2-21.46-54.3-23.37-85.3-70.77-94.76-144.9-17.4-136.28-95.31-150.47-164.05-163-63.28-11.53-117.92-21.49-121.47-116.52C147.32,18.45,75.72,5.02,0,0v2.7c74.43,4.94,144.7,17.94,146.42,64.06Z"/>
  </g>
</svg>