<svg xmlns="http://www.w3.org/2000/svg" viewBox="0 0 24.34 17.09"><defs><style>.cls-1{fill:#008dd0;}</style></defs><g id="圖層_2" data-name="圖層 2"><g id="圖層_3" data-name="圖層 3"><polygon class="cls-1" points="0.9 14.34 0.9 17.05 1.43 17.05 1.43 15.88 2.36 15.88 2.36 17.05 2.89 17.05 2.89 14.34 2.36 14.34 2.36 15.42 1.43 15.42 1.43 14.34 0.9 14.34"/><rect class="cls-1" x="3.2" y="14.34" width="0.53" height="2.71"/><rect class="cls-1" x="4.12" y="15.8" width="0.98" height="0.36"/><path class="cls-1" d="M6.42,15a5.47,5.47,0,0,0-.2.56h0c-.06-.19-.13-.36-.21-.55l-.27-.67H5.14L5.92,16v1.1h.53V15.93l.81-1.59H6.68Z"/><polygon class="cls-1" points="8 15.86 8.89 15.86 8.89 15.43 8 15.43 8 14.78 8.94 14.78 8.94 14.34 7.47 14.34 7.47 17.05 9 17.05 9 16.62 8 16.62 8 15.86"/><path class="cls-1" d="M10.26,15.47c-.33-.15-.47-.24-.47-.44s.12-.3.4-.3a1,1,0,0,1,.49.12l.11-.43a1.41,1.41,0,0,0-.59-.12c-.59,0-.94.34-.94.79s.26.6.67.78.43.25.43.44-.15.34-.44.34a1.28,1.28,0,0,1-.59-.15l-.11.44a1.63,1.63,0,0,0,.68.15c.64,0,1-.35,1-.82S10.7,15.66,10.26,15.47Z"/><path class="cls-1" d="M16.62,4.76s0,.06.06,0,0,0,0,0S16.65,4.71,16.62,4.76Z"/><polygon class="cls-1" points="18.13 5.14 18.13 5.11 18.11 5.11 18.13 5.14"/><path class="cls-1" d="M18.09,5.17s0,.06,0,.07a.06.06,0,0,0,.05,0Z"/><path class="cls-1" d="M22.11,7.06a7.71,7.71,0,0,1,.73-.63l-.08,0a.13.13,0,0,1-.11,0,.14.14,0,0,1-.07.14s-.08,0-.13,0,0,.08,0,.12-.07,0-.1.06-.12.06-.09.12S22.18,7,22.11,7.06Z"/><path class="cls-1" d="M22.11,7.13c-.06-.08-.15,0-.22.09s-.22,0-.24.16l0,0c.08,0,.15,0,.21-.06S22.05,7.21,22.11,7.13Z"/><path class="cls-1" d="M16.72,10.65h0Z"/><path class="cls-1" d="M24.11,5.47c-.05,0-.07,0-.1-.06s.07-.14.08-.24a.71.71,0,0,0,.25-.35c-.1.1-.24.16-.3.31s-.12.12-.18.18-.07.09,0,.16a.08.08,0,0,1-.08,0s.05,0,0,0-.06,0-.1,0,0,0,0,.07-.14,0-.18.1-.08,0-.08,0-.05.07-.08.11l-.46.28s-.05,0-.07,0-.11-.06-.15,0l0,0s0,0,0,0l0,0s-.08,0-.08,0h-.06s0,.06,0,.08,0,0,.05,0,0,0,0,.06c-.18-.06-.13.15-.27.2l0,0c-.07.05-.07-.06-.12-.08s0,0,0-.07a.22.22,0,0,1,.18,0v0c-.05,0,.06-.07,0-.1s.1-.11.13-.16.11,0,.13-.11.09,0,.13-.08v0c0-.07.06,0,.11,0s0,0,0,0a0,0,0,0,1,.06,0s.13-.08.11-.14-.08.07-.12.09-.35,0-.43.23c-.06,0-.09.07-.16,0s0,0,0,0,0,0,.06,0,0-.1,0-.12-.11,0-.15-.09l0,.08s0,0-.07,0-.32,0-.41.18-.09-.14-.14-.2,0-.08,0-.11.15,0,.19-.06a.07.07,0,0,1-.08,0c.08,0,0-.1.07-.14s.19,0,.27,0v0a.57.57,0,0,1,.23-.12s0,0,0-.07h0a.09.09,0,0,1-.1,0L22.15,5l0,0c0-.07.1,0,.14-.07a.53.53,0,0,1,.35-.17s0,0,0,.06.12-.07.18-.07l-.07-.15.16-.14s0-.06,0-.08.11,0,.1-.08.1,0,.16-.07-.13,0-.06.18h.07c.06-.11.19-.11.26-.18.22-.07.28-.29.48-.39l0,0,0,0c.16,0,.17-.13.23-.2s-.06,0-.08,0l.11-.08c.08-.06.05-.17.05-.25s-.07,0-.1,0,0,0,.05-.05.07-.08,0-.15.07-.17-.05-.24a.06.06,0,0,0-.11,0l0,0c-.18,0,0-.13,0-.22s-.08,0-.11,0,0-.13,0-.12v0a.12.12,0,0,1-.18-.09s0,0,0-.06-.1-.1-.07-.19.05,0,.07,0c0-.19.33-.12.29-.34-.06,0-.09,0-.14.06s-.13-.13-.24-.17l.09-.06,0,0h0s-.09,0-.07-.12a.24.24,0,0,1,.25-.08c0-.18.22-.06.23-.22s0,0,0,0-.29.13-.32-.07.12-.11.17-.18-.15,0-.18.08-.17.11-.22,0l.07,0s0,0,0,0-.05,0-.08,0,0,0,0,0,.14-.1.22-.16-.07.05-.11,0,0,0-.05,0-.13,0-.15,0,0,0,0-.07.17-.2.25-.27L23.49,0c-.11,0-.16.09-.27.07s-.13,0-.12.11S23,.23,23,.22s-.14,0-.18.07a3.26,3.26,0,0,1-.44.15h0s-.07.08-.09,0c-.14.11-.32.13-.45.25s-.27.2-.45.19-.14.27-.31.26-.28.12-.39.22h0s-.05.06,0,.09l-.05.05a.22.22,0,0,1,0,.17c-.05.05-.06.13-.13.14a.74.74,0,0,1-.16.2.75.75,0,0,1-.39.41c-.06,0-.08.11-.16.14h0c0,.09-.13.08-.18.16s-.08.17-.2.11h0s0,0-.05,0a.11.11,0,0,0-.05.09s0,.06-.08,0c-.12.22-.4.3-.57.48s-.09,0-.11,0-.09,0-.1,0-.11.15-.2.22c-.32.13-.56.46-.93.49,0,0-.09.07-.13,0s0,0,0,0a.32.32,0,0,0-.23.13s.05,0,.05,0-.12.07-.17.1h.07c.08,0,0,.12.06.15a.15.15,0,0,1-.09.06c-.12.14-.31.13-.49.14l0,0c-.11,0-.22,0-.33,0a.66.66,0,0,0-.34,0,8,8,0,0,0-1.19.32c-.08,0-.15.09-.24.06s-.22.08-.32.14-.13,0-.19,0-.2,0-.26,0-.21.06-.3,0-.07,0-.11,0-.16.07-.24,0a.32.32,0,0,1-.24-.09.36.36,0,0,1,.32-.06c.06-.08.15,0,.22,0s0,0,0,0a0,0,0,0,1,.06,0v0a1.25,1.25,0,0,1,.46-.09v0c.08,0,.18,0,.23-.11s-.2,0-.23.06a5.46,5.46,0,0,1-.56,0h0c-.11,0-.27.11-.35,0-.06,0-.14,0-.16,0s-.15.07-.2,0,0,0,0-.07-.24,0-.33,0,0,0-.08,0-.22,0-.31-.06l0,0s0,0,0,0,.08,0,.1.07,0,0,0,.06a4.51,4.51,0,0,1-1.24-.11c-.12,0-.15-.1-.26-.09a1,1,0,0,1-.29,0,.49.49,0,0,1-.24,0c-.12.06-.15,0-.26.07s-.18.06-.26,0-.19,0-.27,0c-.31,0-.61,0-.92,0l0,0c-.15,0-.32,0-.46-.07s-.13-.06-.22,0-.19-.09-.27,0S7,5.13,7,5.07,7,5,7,4.94H7S7,5,7,5l0,0c0,.16-.15,0-.23,0a.2.2,0,0,1-.19-.07v0c-.06,0-.09-.08-.16-.07h0l0,0c0-.07-.13,0-.17-.08a.67.67,0,0,1-.25-.16l0,0s-.08,0-.1-.07h0l0,0c0-.07.07,0,.11,0s-.08,0-.08-.09,0-.08-.09-.06-.14,0-.18-.07l.05-.05a.29.29,0,0,0-.16,0c-.06,0,0-.1-.08-.14s-.16,0-.18.09S5,4.18,5,4.11s-.09,0-.13-.07l0,0s0,0,0,0L4.77,4s0,0,0,0,0,0,0,0-.06,0-.09,0l0,0s-.08,0-.09,0h0s-.05,0-.05,0a.81.81,0,0,1-.18-.12c-.07,0-.18-.06-.19-.16a3,3,0,0,1-.41-.39c-.09,0-.14-.1-.22-.13l.08.08c-.05.07-.14,0-.19,0s-.1-.06-.09-.12-.07,0-.1,0,.11.08.14.12,0,0,0,.06-.08,0-.13,0S3,3.15,3,3,3,3,3.05,3L3,3c0-.11-.13-.06-.19-.15s0-.16.07-.19.1,0,.15.05c.11-.12.14.13.26.09-.1-.07-.17-.19-.27-.24s0-.12,0-.16.08-.09,0-.15,0,0-.07,0,0,.11-.12.13a.43.43,0,0,0-.29.1c.05,0,.14,0,.17,0s.07.11,0,.18,0,0-.08,0v0s0,0-.08,0-.11.07-.09.18,0,.12,0,.15l0-.05a.09.09,0,0,0-.08.05c-.1-.14-.26-.23-.33-.4l0,0c0-.07-.09-.05-.08-.13a.16.16,0,0,1,.08-.06s0,0,0,0-.23-.15-.16-.27l-.06,0C1.92,2.05,2,2,2.07,2s.11,0,.17,0a.46.46,0,0,0-.16-.15c-.06,0-.12-.05-.18,0s-.12,0-.12-.06a0,0,0,0,1,0,0,.18.18,0,0,0,0-.2.47.47,0,0,1-.06.09c-.11,0-.05-.11-.09-.18l0,0,0,.05-.07.06c-.06-.05-.16,0-.23-.07s-.07-.12-.12,0S1.22,1.17,1,1.25c-.07.05,0,.17-.05.22.15.15-.09.25-.1.38S.8,2,.73,2a.34.34,0,0,0-.09.31c-.09.06,0,.08,0,.12s-.15.22-.25.32,0,.15-.08.16A.36.36,0,0,0,.37,3c-.07,0,0,.11,0,.16s0,.13,0,.16a1,1,0,0,1-.12.35h0s0,0,0,.05,0,0,0,0-.09.07-.13.13l0,.05s0,0-.07,0S0,4,.07,4s.17.18,0,.27,0,.06,0,.09,0,.06,0,.08a.09.09,0,0,0,.1,0s0,0,0,.06.13.2,0,.25c.1,0,0-.12.12-.06s0,.15,0,.24,0,0,.07,0,.06.09,0,.12,0,.05,0,.07,0,0,0,0,0,.19-.09.25-.14.26-.23.35c.11.07,0,.15,0,.21l-.06,0,0,0c0,.08-.1,0-.11.1s0,.08,0,.13.09,0,.15,0,0,0-.07-.06,0,0,.06-.08a.43.43,0,0,1,.34-.2c.06,0,0,.07,0,.11l.05,0h0c0-.13.09,0,.15,0l0,0a.38.38,0,0,0,.1-.12c.08,0,.06.08.12.11s-.07.05-.11.07S.71,6,.72,6,.8,6,.84,6h0s0,0,0,0S1,6,1.05,6s0,.06-.07.05a0,0,0,0,1,0,0l.06,0c0,.06-.06,0-.06.06s0,0-.06,0,0,.07,0,.1-.11,0-.16,0-.19,0-.21-.07-.09,0-.14,0,0,0,0,0h0a0,0,0,0,1,0,0c.06.05.1,0,.16,0a.3.3,0,0,1,.07.15H.76s.07.06.06.11,0,0-.06,0v.05s0,.11,0,.15A.39.39,0,0,0,.68,7c-.09,0,0,.11-.07.15s.08.07.14.08a.79.79,0,0,1,.17.14,1.17,1.17,0,0,1,.26.1.51.51,0,0,0,.26.09c.09.09.25.12.27.27s.07,0,.1,0A.46.46,0,0,1,2,7.94S1.89,8,1.89,8s.15,0,.18.08.06,0,.08,0,.07,0,.06.1l0-.06c.08,0,.18,0,.21.11l0,0c.07,0,.13,0,.2,0a.22.22,0,0,1,.12.11c.15.07.27.25.4.34a.58.58,0,0,0,.36.17c.09.17.28,0,.37.14l0,.06c.12.06.28.08.4.14s.12.05.13.13,0,0,.07,0l0,.05c.07,0,.08,0,.09.08s.11,0,.15,0,0,.09,0,.12,0-.07.09,0,0,.1.06.15.14,0,.19,0,.16,0,.21.09-.06.05,0,.09.14,0,.17,0l0,0a.13.13,0,0,1,.08.08l.09-.07a.1.1,0,0,1,0,.1h.07c.06,0,0,.09.07.13s.06,0,.08,0l0,0v0s0-.06,0-.08.06,0,.08,0S5.9,10,6,10s0,0,0,0,.1-.05.15.07l0,0s0,0,.07,0,.14,0,.11.1v0l0,0v0a.1.1,0,0,1,.14.05c0,.06.09.06.13.1s.21,0,.26.13.07,0,.1,0c.1.22.38.15.46.38.17,0,.27.16.45.15l.16-.13a.13.13,0,0,0,.13,0c.15,0,.35,0,.44.14s.1,0,.14,0S9,11,9,11.11s.17-.09.26-.16,0,0,0-.07.09,0,.14,0,.18,0,.24,0l0,0h0s0,0,0,0-.08,0-.12,0v0c.05.05.08,0,.13,0s0,.07.09.05.16,0,.24,0,0-.08,0-.1a.74.74,0,0,1,.25.05s-.08,0-.11,0,0,0,0,0,.1,0,.16,0,.13,0,.18,0,0,0,0,.05h.11s.06,0,.05.08c.15-.07.25.09.38,0s.17,0,.22,0,.24.1.38.09a.68.68,0,0,1,.54,0c.09-.08.15,0,.25,0s.21-.08.34,0c.06-.07.11,0,.18,0s.34,0,.5,0a2.61,2.61,0,0,0,.88,0c.1-.24.31,0,.48,0s.2,0,.22.06l.2.06c0-.06.07,0,.12,0s.06-.05.11-.06.08,0,.06.08H16c.08-.1.21,0,.28-.11s-.12,0-.1-.11,0,0,.07,0,.15.08.22,0,.14-.06.25,0,0-.07,0-.09a.43.43,0,0,1-.17-.13s0-.05,0-.06a4.26,4.26,0,0,0,.54-.14c0-.1.16-.06.23-.11s0-.12-.05-.15.05,0,.06-.07a.09.09,0,0,1-.1,0c0-.12.13,0,.16-.08a.34.34,0,0,0,.22-.05c.18,0,.3-.16.5-.12s.15,0,.2-.05.18,0,.26-.09c-.15,0-.29.11-.4,0s0,0,0,0,0-.06.06,0,.19-.06.32-.06.23-.05.3-.13.24-.17.39-.07c0-.05.08-.06.11-.1s.06-.06,0-.12.09-.13.14-.19.12.07.19.06.19-.14.23-.25,0,0,.06,0,.11-.15.19-.22a1.58,1.58,0,0,1-.26.13v0c0-.06,0-.08.06-.12s.2-.19.33-.19a1.87,1.87,0,0,0,.47-.37c.13,0,.17-.14.29-.2s.05-.08.12-.07A3.25,3.25,0,0,0,21.66,8s0,0-.05,0-.2,0-.3.06S21.23,8,21.2,8l.13-.14c.18,0,.16-.25.33-.27s.06.09.06.15-.06.16-.09.15h.05s0,.05,0,.08.06-.1.1,0v0h0s0-.08,0-.11.18-.07.22-.18.28-.3.46-.38c0,0,0,0,.05,0s.2-.14.12-.29.06,0,.11,0h0s0,0-.06,0A.24.24,0,0,1,23,6.77c-.09-.09.09,0,.08-.1l0,0c-.13,0-.07.16-.19.16s-.1,0-.17,0-.05.07-.05.12-.11.12-.19.08V7h0s-.08,0-.09,0a1,1,0,0,1,.2-.15.26.26,0,0,1,.1-.13c.15,0,.07-.17.19-.2s.19-.11.31-.11c-.06,0-.11,0-.14,0s.21-.21.36-.23a.11.11,0,0,0,.09-.1l0,0V6s0,0,.06,0,.05-.11.09-.16.12,0,.2,0,0,0,0-.05L24,5.65a.66.66,0,0,0,.14-.24S24.13,5.45,24.11,5.47Zm-11.57.75.09.09c-.07,0-.17,0-.23.1s-.13,0-.19,0,0,0,0,0,0,0,0-.07v0c-.12,0-.16.15-.26.13s-.06,0-.08,0v0s.08,0,.09,0-.14-.09-.2,0h-.06V6.23c-.12,0-.24,0-.36,0s-.2,0-.3,0l-.16-.08c-.05,0-.05,0-.09,0s0,0,0,.06h-.05c0-.07-.09,0-.13-.07S10.44,6,10.35,6l-.13-.13s0-.08,0-.1.05-.08,0-.13.13-.26.3-.21c.18-.14.41,0,.59-.06.25.09.56,0,.76.2.1,0,.22,0,.28,0s-.07,0-.13,0-.3,0-.45.07h0l-.41,0s0,0,0,0-.08,0-.1,0,0,.1,0,.11a3.41,3.41,0,0,1,.56,0v0l.09.07a.81.81,0,0,1,.41,0,.28.28,0,0,1,.22,0l-.08,0h0s-.13,0,0,.09.06,0,.07,0,.09,0,.12,0a.14.14,0,0,1,.11,0Zm6.09-1.74c-.14,0-.22.14-.36.15a.88.88,0,0,1-.36.14c-.05.05-.1.13-.18.11h0l0,.06a.11.11,0,0,0-.08,0v0a0,0,0,0,0,0,0c0,.09-.14,0-.16.13s-.3,0-.25.14,0,.09,0,.15-.06,0-.1,0l0,0c0,.1-.1.08-.17.1s-.21,0-.32,0-.06,0-.09,0-.09,0-.13.07,0,0,0,0a1,1,0,0,1-.49.07A.2.2,0,0,0,16,5.61s-.06,0-.09,0l0,0a.09.09,0,0,0-.1,0s0,0-.08,0c-.11.11-.26,0-.38.12s-.15,0-.23.07-.26,0-.41.07,0,0,0,0l0,0a.13.13,0,0,0,.13,0c-.1-.07-.24-.07-.32-.16s-.16-.09-.26-.07,0,0,0-.08.08-.13.22-.11.36-.11.51-.22a1.24,1.24,0,0,1,.39-.09c.18,0,.33-.16.53-.11,0,0,.05,0,.08,0s.1.06.16,0a.2.2,0,0,1,.24-.08l.21.11c.11-.18.34,0,.43-.16s.32,0,.44-.15h0c0-.09.09-.06.14,0s.06,0,.09-.07v0c.16.06.31-.06.45-.11s.12-.09.18-.09.25-.13.41-.1h0C18.7,4.36,18.71,4.45,18.63,4.48Z"/><path class="cls-1" d="M16.7,4.72s0,0,0,0Z"/><path class="cls-1" d="M14,16.94a2.39,2.39,0,0,1-.77.13,1.31,1.31,0,0,1-1-.33,1.45,1.45,0,0,1-.37-1,1.31,1.31,0,0,1,1.39-1.4,1.43,1.43,0,0,1,.63.12l-.11.42a1.31,1.31,0,0,0-.52-.09c-.48,0-.84.29-.84.94s.33.94.78.94a.75.75,0,0,0,.26,0V16h-.39v-.41H14Z"/><path class="cls-1" d="M15.65,15.77a.64.64,0,0,1,.36.53,6.57,6.57,0,0,0,.2.74h-.53a3,3,0,0,1-.17-.64c-.07-.35-.18-.45-.43-.45h-.17V17h-.52V14.38a4.35,4.35,0,0,1,.7-.06c.34,0,1,0,1,.77a.71.71,0,0,1-.47.67Zm-.53-.21a.42.42,0,0,0,.48-.43c0-.35-.26-.41-.45-.41a.69.69,0,0,0-.24,0v.82Z"/><path class="cls-1" d="M18.6,15.66c0,.94-.48,1.42-1.15,1.42s-1.12-.6-1.12-1.38.45-1.4,1.16-1.4S18.6,14.94,18.6,15.66Zm-1.72,0c0,.53.21,1,.59,1s.58-.44.58-1-.18-1-.58-1S16.88,15.2,16.88,15.69Z"/><path class="cls-1" d="M20.85,15.92c0,.79-.38,1.16-1,1.16s-.95-.36-.95-1.15V14.34h.52V16c0,.47.18.68.44.68s.46-.2.46-.68V14.34h.52Z"/><path class="cls-1" d="M21.29,14.38a3.82,3.82,0,0,1,.69-.06,1.14,1.14,0,0,1,.77.22.77.77,0,0,1,.26.6.9.9,0,0,1-1,.9H21.8v1h-.51Zm.51,1.24.18,0a.46.46,0,0,0,.52-.48.42.42,0,0,0-.47-.44,1,1,0,0,0-.23,0Z"/></g></g></svg>