<?xml version="1.0" encoding="UTF-8"?>
<svg id="_圖層_2" data-name="圖層 2" xmlns="http://www.w3.org/2000/svg" xmlns:xlink="http://www.w3.org/1999/xlink" viewBox="0 0 311.53 266">
  <defs>
    <style>
      .cls-1 {
        fill: none;
      }

      .cls-2 {
        fill: url(#linear-gradient);
      }

      .cls-3 {
        clip-path: url(#clippath);
      }
    </style>
    <clipPath id="clippath">
      <path class="cls-1" d="M57.67,236.59s0,0,0,0c.52-.57.54-1.43.04-2.01l-1.93-2.25c-.51-.6-1.38-.71-2.03-.25-11.45,8.06-31.62,16.79-52.65,22.78-.41.12-.75.4-.94.77-.19.38-.22.82-.07,1.22l2.93,7.85c.22.59.79.99,1.42.99.16,0,.32-.03.46-.07,22.45-7.2,43.15-18.59,52.76-29.01ZM11.6,126.86l-.22.55c1.99,1.54,3.27.85,3.27-.69v-8.48h-5.03v10.13h1.36v-4.2h2.31v2.29c0,.79-.3.81-1.7.39ZM10.99,119.04h2.31v1.77h-2.31v-1.77ZM10.99,123.41v-1.85h2.31v1.85h-2.31ZM1.52,202.12c-.5,0-.97.25-1.26.67-.28.42-.34.95-.15,1.41l1.33,3.32c.23.58.78.95,1.41.95h21.84v30.09c0,.45.2.88.55,1.17.27.22.61.35.97.35.1,0,.19,0,.29-.03l8.66-1.66c.71-.14,1.23-.76,1.23-1.49v-28.44h18.42c.54,0,1.04-.29,1.31-.76l1.46-2.52c.2-.35.26-.76.15-1.15-.1-.39-.37-.73-.72-.92l-7.44-4.23c-.65-.37-1.49-.2-1.95.39l-2.22,2.84h-9.02v-31.62h18.42c.54,0,1.04-.29,1.31-.76l1.45-2.52c.2-.35.26-.77.15-1.15-.1-.39-.36-.72-.72-.92l-7.45-4.23c-.65-.37-1.49-.2-1.94.39l-2.22,2.84H1.52c-.5,0-.97.25-1.26.67-.28.42-.34.95-.15,1.41l1.33,3.32c.23.58.78.95,1.41.95h21.84v31.62H1.52ZM301.48,127.03h.87c.1,0,.18-.08.18-.18v-9.19h.78l4.24,9.26c.03.06.09.1.16.1h.87c.06,0,.12-.03.15-.08.03-.05.04-.12.01-.17l-4.22-9.19c1.17-.34,2-1.44,2-2.69,0-1.53-1.2-2.78-2.67-2.78h-2.38c-.1,0-.18.08-.18.18v14.55c0,.1.08.18.18.18ZM302.53,112.64h1.33c.79,0,1.37.95,1.37,2.26,0,1.08-.36,2.24-1.37,2.24h-1.33v-4.5ZM266.84,126.89c.02.08.09.14.17.14h0c.08,0,.16-.06.17-.14l3.36-14.55c.01-.05,0-.11-.03-.15-.03-.04-.09-.07-.14-.07h-.16c-.08,0-.16.06-.17.14l-2.68,11.56-2.8-11.56c-.02-.08-.09-.14-.17-.14h-.89c-.06,0-.11.03-.14.07-.03.04-.05.1-.03.15l3.53,14.55ZM282.56,127.03h6.15c.1,0,.18-.08.18-.18v-.16c0-.1-.08-.18-.18-.18h-5.09v-9.04h5.09c.1,0,.18-.08.18-.18v-.16c0-.1-.08-.18-.18-.18h-5.09v-4.3h5.09c.1,0,.18-.08.18-.18v-.16c0-.1-.08-.18-.18-.18h-6.15c-.1,0-.18.08-.18.18v14.55c0,.1.08.18.18.18ZM137.23,165.15s0,0,0,0l-7.45-4.23c-.66-.37-1.48-.21-1.94.39l-2.22,2.84h-61.35c-.84,0-1.52.68-1.52,1.52v44.27c0,26.16-.84,34.14-9.1,52.53-.34.75,0,1.65.74,2l3.01,1.4c.65.31,1.48.08,1.89-.52,12.47-18.22,15.16-28.05,15.16-55.4v-39.43h50.39v22.42h-45.46c-.5,0-.97.25-1.26.67-.28.42-.34.95-.15,1.41l1.33,3.31c.23.58.78.95,1.41.95h44.13v22.42h-45.46c-.5,0-.97.25-1.26.67-.28.42-.34.95-.15,1.41l1.33,3.31c.23.58.78.95,1.41.95h44.13v19.79c0,5.39-2.42,11.82-13.93,11.82h-17.1c-.5,0-.97.25-1.25.66-.28.42-.34.95-.15,1.42l1.33,3.32c.23.58.78.95,1.41.95h21.51c5.52,0,10.23-1.37,13.64-3.97,4.15-3.17,6.26-7.95,6.26-14.2v-78.43l1.25-2.16c.2-.35.26-.76.15-1.16-.11-.39-.36-.72-.71-.92ZM12.49,116.26h-1.66l1.08-.39c-.37-.85-.85-1.74-1.42-2.48l-.53.22c.32.81.57,1.81.77,2.66h-1.89v.79h6.53v-.79h-2.25c.51-.75,1.08-1.83,1.46-2.64l-1.03-.39h1.54v-.81h-2.56l.67-.63c-.67-.69-1.52-1.4-2.31-1.89l-.35.41c.49.61.99,1.34,1.46,2.11h-2.72v.81h3.94c-.16,1.05-.43,2.15-.73,3.04ZM250.47,127.03h.87c.1,0,.18-.08.18-.18v-14.55c0-.1-.08-.18-.18-.18h-.87c-.1,0-.18.08-.18.18v14.55c0,.1.08.18.18.18ZM17.81,127.95c.71.04,1.3.04,1.97,0,1.91-.08,2.05-1.38,1.36-3.51h-.55c.02,1.83,0,2.17-1.01,2.27-.51.04-1.03.04-1.6,0-.83-.08-.93-.2-.93-.91v-1.52h3.21v-.79h-3.21v-1.38h3.19v-.79h-3.19v-1.32h3.19v-.79h-3.19v-1.38h3.29v-3.47h-3.29v-1.5h3.98v-.81h-3.98v-1.95h-1.4v5.07h3.31v1.83h-3.31v9.11c0,1.36.43,1.77,2.15,1.83ZM47.21,126.17h12.01v2.03h1.48v-13.98h-1.48v11.12h-5.22v-15.2h-1.58v15.2h-5.21v-11.06h-1.46v14.06h1.46v-2.17ZM3.48,124.16l.77,1.68c1.48-.65,3.69-2.05,5.15-3.29l-.32-.53c-.67.36-1.32.67-1.97.95v-4.81h1.85v-.83h-1.85v-4.99h1.97v-.81H3.75v.81h1.91v4.99h-1.79v.83h1.79v5.36c-.71.24-1.42.45-2.19.65ZM168.53,112.26c-.02-.08-.09-.14-.18-.14-.08,0-.15.06-.17.14l-3.38,14.55c-.01.05,0,.11.03.15.03.04.09.07.14.07h.16c.08,0,.16-.06.17-.14l1.57-6.72h2.28l1.64,6.72c.02.08.09.14.17.14h.89c.06,0,.11-.03.14-.07.03-.04.05-.1.03-.15l-3.51-14.55ZM167,119.65l1-4.31,1.04,4.31h-2.04ZM221.11,232.32c-.51-.6-1.42-.7-2.05-.23-10.35,7.61-23.73,16.27-44.46,22.78-.4.12-.73.41-.91.78-.18.37-.2.81-.06,1.2l2.93,7.85c.22.59.79.98,1.42.98.17,0,.35-.03.51-.09,24.23-8.6,38.31-21.88,44.54-29.03.49-.56.5-1.42,0-1.98l-1.93-2.25ZM85.28,124.26c1.22-1.18,2.82-3.79,3.59-5.8v9.92h1.48v-10.63c.63,1.01,1.36,2.25,1.85,3.25l1.2-.91c-.79-1.18-2.07-2.46-3.06-3.33v-1.4h2.74v-.83h-2.74v-4.4h-1.48v4.4h-3.21v.83h2.98c-.79,3.69-2.54,6.7-3.82,8.42l.47.47ZM308.96,176.77l-8.66-2.37c-.46-.13-.95-.03-1.33.25-.37.28-.6.74-.6,1.21v71.97c0,3.81-1.18,6.76-3.51,8.76-2.37,2.04-5.88,3.07-10.42,3.07h-17.1c-.5,0-.97.25-1.26.67-.28.42-.34.94-.15,1.41l1.33,3.31c.23.58.78.95,1.41.95h21.51c5.52,0,10.23-1.37,13.64-3.97,4.15-3.17,6.26-7.95,6.26-14.2v-69.59c0-.68-.46-1.28-1.12-1.46ZM311.48,166.08h0c-.11-.39-.36-.72-.71-.92l-7.45-4.23c-.66-.37-1.48-.21-1.94.39l-2.21,2.84h-70.41c-.5,0-.97.25-1.26.67-.28.42-.34.94-.15,1.41l1.33,3.32c.23.58.78.95,1.41.95h78.49c.54,0,1.04-.29,1.31-.76l1.46-2.52c.2-.35.26-.76.15-1.15ZM274.28,237.76c0,.45.2.88.55,1.17.27.23.62.35.97.35.09,0,.19,0,.29-.03l8.66-1.66c.71-.14,1.23-.76,1.23-1.49v-38.61l1.25-2.16c.2-.35.26-.76.15-1.16-.11-.39-.36-.72-.71-.92l-7.45-4.23c-.66-.37-1.48-.21-1.95.39l-2.21,2.84h-36.64l-8.61-2.36c-.45-.13-.95-.03-1.32.26-.37.29-.6.74-.6,1.21v46.4c0,.45.2.88.55,1.17.35.29.8.41,1.25.32l8.66-1.66c.71-.14,1.23-.76,1.23-1.49v-4.41h34.69v6.07ZM239.59,225.33v-26.73h34.69v26.73h-34.69ZM204.22,112.12h-.87c-.1,0-.18.08-.18.18v14.55c0,.1.08.18.18.18h7.11c.1,0,.18-.08.18-.18v-.18c0-.1-.08-.18-.18-.18h-6.06v-14.19c0-.1-.08-.18-.18-.18ZM173.64,204.2l1.33,3.32c.23.58.78.95,1.41.95h43.58c.54,0,1.04-.29,1.31-.76l1.46-2.52c.2-.35.26-.76.15-1.16-.11-.39-.36-.72-.71-.92l-7.45-4.23c-.66-.37-1.48-.21-1.94.39l-2.22,2.84h-35.51c-.5,0-.97.25-1.26.67-.28.42-.34.95-.15,1.41ZM153.26,112.12h-6.15c-.1,0-.18.08-.18.18v14.55c0,.1.08.18.18.18h6.15c.1,0,.18-.08.18-.18v-.16c0-.1-.08-.18-.18-.18h-5.09v-9.04h5.09c.1,0,.18-.08.18-.18v-.16c0-.1-.08-.18-.18-.18h-5.09v-4.3h5.09c.1,0,.18-.08.18-.18v-.16c0-.1-.08-.18-.18-.18ZM130.53,127.03c.1,0,.18-.08.18-.18v-9.19h1.48c1.56,0,2.53-1.43,2.53-2.76,0-1.53-1.2-2.78-2.67-2.78h-2.38c-.1,0-.18.08-.18.18v14.55c0,.1.08.18.18.18h.87ZM130.71,112.64h1.33c.79,0,1.37.95,1.37,2.26,0,1.08-.36,2.24-1.37,2.24h-1.33v-4.5ZM92.05,124.7c1.83-1.58,3.65-4.4,4.55-6.64v10.43h1.48v-11.06c.75,2.62,2.03,5.21,3.37,6.84l1.3-1.3c-1.75-1.54-3.65-4.32-4.57-7.61h3.41v-.83h-3.51v-4.38h-1.48v4.38h-3.04v.83h2.74c-.95,3.79-2.98,6.92-4.71,8.87l.45.47ZM189.07,114.9c0-1.53-1.2-2.78-2.67-2.78h-2.38c-.1,0-.18.08-.18.18v14.55c0,.1.08.18.18.18h.87c.1,0,.18-.08.18-.18v-9.19h.78l4.24,9.26c.03.06.09.1.16.1h.87c.06,0,.12-.03.15-.08.03-.05.04-.12.01-.17l-4.22-9.19c1.17-.34,2-1.44,2-2.69ZM186.4,117.14h-1.33v-4.5h1.33c.79,0,1.37.95,1.37,2.26,0,1.08-.36,2.24-1.37,2.24ZM241.58,57.25c9.19-12.04,7.18-29.21-4.36-38.91-12.38-10.49-30.39-10.8-45.15-6.39-2.69.77-5.89,1.93-8.62,1.11-.86-.26-1.73-.98-2.37-1.69-1.03-1.09-2.13-2.17-3.25-3.18-4.89-4.4-11.15-7.6-17.78-8.1-9.48-.76-19.76,3.14-24.86,11.36,5.92-5.13,14.04-7.1,21.67-5.87,5.92.96,10.95,4.56,15.03,8.83.87.93,1.76,1.88,2.57,2.87.17.21.49.55.66.75,1.36,1.48,3.01,2.72,4.97,3.53,4.21,1.73,8.65,1.22,12.86.21,10.56-2.75,22.41-3.09,32.02,2.29,5.88,3.32,10.08,9.44,9.44,16.3-.76,8.87-8.61,14.31-16.77,16.04-16.09,3.61-31.39-4.04-44.51-12.92-5.74-3.8-11.7-8.53-17.14-12.78-13.84-10.37-29.06-20.28-46.69-22.52-15.45-1.79-33.61,2.91-41.66,17.34-4.9,8.55-4.58,19.88.84,28.05,11.46,17.35,37.03,18.19,54.34,10.21,8.44-3.93,15.88-10.09,20.93-17.83-10.22,8.1-22.44,13.71-35.45,14.49-9.73.62-20.69-.96-27.81-7.98-7.14-6.99-6.98-18.28.6-24.79,6.32-5.53,15.29-6.83,23.54-6.27,17.91,1.62,35.19,15.27,48.92,26.18,15.08,11.67,32.29,23.16,52.01,24.16,13.26.57,27.72-3.47,36.02-14.51ZM173.79,164.82c-.28.42-.34.94-.15,1.41l1.33,3.32c.23.58.78.95,1.41.95h43.58c.54,0,1.04-.29,1.31-.76l1.46-2.52c.2-.35.26-.76.15-1.16-.11-.39-.36-.72-.71-.92l-7.45-4.23c-.66-.37-1.48-.21-1.94.39l-2.22,2.84h-35.51c-.5,0-.97.25-1.26.67ZM236.19,114.9c0-1.53-1.2-2.78-2.67-2.78h-2.38c-.1,0-.18.08-.18.18v14.55c0,.1.08.18.18.18h.87c.1,0,.18-.08.18-.18v-9.19h.78l4.24,9.26c.03.06.09.1.16.1h.87c.06,0,.12-.03.15-.08.03-.05.04-.12.01-.17l-4.22-9.19c1.17-.34,2-1.44,2-2.69ZM233.52,117.14h-1.33v-4.5h1.33c.79,0,1.37.95,1.37,2.26,0,1.08-.36,2.24-1.37,2.24Z"/>
    </clipPath>
    <linearGradient id="linear-gradient" x1="-322.33" y1="-669.42" x2="435.79" y2="263.22" gradientUnits="userSpaceOnUse">
      <stop offset="0" stop-color="#daa8ab"/>
      <stop offset=".26" stop-color="#924758"/>
      <stop offset=".32" stop-color="#f3decf"/>
      <stop offset=".64" stop-color="#966570"/>
      <stop offset=".69" stop-color="#f3decf"/>
      <stop offset="1" stop-color="#b37c7d"/>
    </linearGradient>
  </defs>
  <g id="_圖層_3" data-name="圖層 3">
    <g class="cls-3">
      <rect class="cls-2" x="-413.85" y="-650.88" width="1139.23" height="1139.23"/>
    </g>
  </g>
</svg>