<?xml version="1.0" encoding="UTF-8"?>
<svg id="_圖層_2" data-name="圖層 2" xmlns="http://www.w3.org/2000/svg" xmlns:xlink="http://www.w3.org/1999/xlink" viewBox="0 0 534.66 104.65">
  <defs>
    <style>
      .cls-1 {
        filter: url(#drop-shadow-1);
      }

      .cls-2 {
        fill: #fff;
      }
    </style>
    <filter id="drop-shadow-1" x="-60.24" y="-60.55" width="655" height="226" filterUnits="userSpaceOnUse">
      <feOffset dx="0" dy="0"/>
      <feGaussianBlur result="blur" stdDeviation="20"/>
      <feFlood flood-color="#1a85b1" flood-opacity=".7"/>
      <feComposite in2="blur" operator="in"/>
      <feComposite in="SourceGraphic"/>
    </filter>
  </defs>
  <g id="_圖層_3" data-name="圖層 3">
    <g class="cls-1">
      <path class="cls-2" d="M10.29,14.84c2.9,1.65,7.4,4.86,7.4,10.56s-4.63,10.2-9.67,10.25c-5.3.04-8.02-5.12-8.02-5.12h.45s2.81,4.77,7.57,4.68c3.3-.04,7.98-2.54,7.98-9.36,0-4.41-4.1-7.31-6.37-8.55C5.3,14.88.58,12.48.58,7.75.58,3.74,4.01.05,8.33,0c4.54-.09,6.42,4.99,6.42,4.99h-.45S12.39.22,8.38.31c-3.48.04-6.37,3.16-6.37,6.73s4.81,5.88,8.29,7.8Z"/>
      <path class="cls-2" d="M42.13.4v35.24h-2.09V.4h-7.66V0h17.42v.4h-7.66Z"/>
      <path class="cls-2" d="M74,18.85h-6.28l-3.92,16.8h-.4L71.68,0l8.6,35.64h-2.18l-4.1-16.8ZM73.91,18.45l-3.12-12.92-2.99,12.92h6.1Z"/>
      <path class="cls-2" d="M99.48.85v34.8h-.4V0h2.36l14.66,29.94V0h.4v35.64L99.48.85Z"/>
      <path class="cls-2" d="M140.61,35.65h-3.12V0h3.07c9.36,0,15.1,8.96,15.1,17.82s-6.19,17.82-15.06,17.82ZM140.57,35.24c8.06,0,12.79-10.07,12.79-17.42S148.59.71,140.57.4h-.94v34.84h.94Z"/>
      <path class="cls-2" d="M175.5,0h2.14v35.64h-2.14V0Z"/>
      <path class="cls-2" d="M199.3.85v34.8h-.4V0h2.36l14.66,29.94V0h.4v35.64L199.3.85Z"/>
      <path class="cls-2" d="M256.32,17.87c0,5.79-1.6,12.79-6.1,16.31-1.25.98-2.58,1.47-3.96,1.47-3.39,0-5.44-2.67-7.08-5.35-2.09-3.43-2.98-7.89-2.98-12.3s1.02-9,2.98-12.65C240.55,2.76,243.04,0,246.3,0c2.9,0,5.35,2,7.44,6.02h-.54c-1.83-3.7-4.5-5.66-6.91-5.66-4.5,0-7.75,9.49-7.75,17.33,0,4.63,1.92,17.64,7.71,17.64,4.55,0,7.75-9.8,7.8-17.64,0-.94-.04-1.83-.13-2.76h-7.62v-.4h9.85c.13,1.02.18,2.18.18,3.34Z"/>
      <path class="cls-2" d="M305.95,12.7v22.95h-2.14V0h5.84c3.39,0,6.1,2.9,6.1,6.37,0,3.07-2.27,6.33-5.75,6.33h-4.05ZM305.95,12.3h3.7c2.5,0,3.79-2.58,3.79-5.93,0-3.61-1.69-5.97-3.79-5.97h-3.7v11.9Z"/>
      <path class="cls-2" d="M352.48,35.65h-2.14l-10.52-22.95h-2.63v22.95h-2.14V0h5.84c3.39,0,6.1,2.9,6.1,6.37,0,2.99-2.05,5.66-5.08,6.28l10.56,22.99ZM337.2,12.3h3.7c2.5,0,3.79-2.58,3.79-5.93,0-3.61-1.69-5.97-3.79-5.97h-3.7v11.9Z"/>
      <path class="cls-2" d="M390.27,18c0,7.71-3.65,17.64-10.92,17.64-7.71,0-11-11.18-11-17.64C368.35,10.29,371.78,0,379.35,0s10.92,11.58,10.92,18ZM387.77,17.69c0-7.75-3.3-17.38-8.47-17.33-5.35.04-8.46,9.58-8.42,17.33.04,7.89,3.3,17.6,8.51,17.6s8.38-9.89,8.38-17.6Z"/>
      <path class="cls-2" d="M427.44,25.04s-.04,10.6-8.73,10.6-8.73-10.6-8.73-10.6V0h2.14v25c0,4.54.09,10.25,6.59,10.25,8.06,0,8.29-10.2,8.29-10.2V0h.45v25.04Z"/>
      <path class="cls-2" d="M451.49,35.65h-3.12V0h3.07c9.36,0,15.1,8.96,15.1,17.82s-6.19,17.82-15.06,17.82ZM451.45,35.24c8.06,0,12.79-10.07,12.79-17.42s-4.77-17.11-12.79-17.42h-.94v34.84h.94Z"/>
      <path class="cls-2" d="M486.32,35.65V0h2.14v35.2h15.28v.45h-17.42Z"/>
      <path class="cls-2" d="M534.66,0l-7.62,12.92v22.72h-2.14V12.92L517.28,0h2.14l7.44,12.65L534.3,0h.36Z"/>
      <path class="cls-2" d="M120.44,69h2.14v35.64h-2.14v-35.64Z"/>
      <path class="cls-2" d="M144.24,69.85v34.8h-.4v-35.64h2.36l14.66,29.94v-29.94h.4v35.64l-17.02-34.8Z"/>
      <path class="cls-2" d="M221.66,104.65l-2.99-12.43-2.9,12.43-8.64-35.64h2.18l7.31,30.12,1.83-7.8-5.44-22.32h2.23l4.28,17.69,4.1-17.69h.4l-4.28,18.54,2.81,11.58,7-30.12h.4l-8.29,35.64Z"/>
      <path class="cls-2" d="M263.77,104.24v.4h-15.06v-35.64h15.06v.4h-12.92v11.41h12.92v.4h-12.92v23.04h12.92Z"/>
      <path class="cls-2" d="M291.54,83.84c2.9,1.65,7.4,4.86,7.4,10.56s-4.63,10.2-9.67,10.25c-5.3.04-8.02-5.12-8.02-5.12h.45s2.81,4.77,7.57,4.68c3.3-.04,7.98-2.54,7.98-9.36,0-4.41-4.1-7.31-6.37-8.55-4.32-2.41-9.05-4.81-9.05-9.54,0-4.01,3.43-7.71,7.75-7.75,4.54-.09,6.42,4.99,6.42,4.99h-.45s-1.92-4.77-5.93-4.68c-3.48.04-6.37,3.16-6.37,6.73s4.81,5.88,8.29,7.8Z"/>
      <path class="cls-2" d="M323.37,69.4v35.24h-2.09v-35.24h-7.66v-.4h17.42v.4h-7.66Z"/>
      <path class="cls-2" d="M383.55,69.4v35.24h-2.09v-35.24h-7.66v-.4h17.42v.4h-7.66Z"/>
      <path class="cls-2" d="M415.42,87.85h-6.28l-3.92,16.8h-.4l8.29-35.64,8.6,35.64h-2.18l-4.1-16.8ZM415.34,87.45l-3.12-12.92-2.99,12.92h6.1Z"/>
      <path class="cls-2" d="M440.51,69h2.14v35.64h-2.14v-35.64Z"/>
      <path class="cls-2" d="M466.04,81.7v22.95h-2.14v-35.64h5.84c3.39,0,6.1,2.9,6.1,6.37,0,3.07-2.27,6.33-5.75,6.33h-4.05ZM466.04,81.3h3.7c2.5,0,3.79-2.58,3.79-5.93,0-3.61-1.69-5.97-3.79-5.97h-3.7v11.9Z"/>
      <path class="cls-2" d="M510.21,104.24v.4h-15.06v-35.64h15.06v.4h-12.92v11.41h12.92v.4h-12.92v23.04h12.92Z"/>
      <path class="cls-2" d="M529.75,69h2.14v35.64h-2.14v-35.64Z"/>
    </g>
  </g>
</svg>
