<?xml version="1.0" encoding="UTF-8"?>
<svg id="_圖層_2" data-name="圖層 2" xmlns="http://www.w3.org/2000/svg" viewBox="0 0 410.76 270.34">
  <defs>
    <style>
      .cls-1 {
        fill: #027484;
      }
    </style>
  </defs>
  <g id="_圖層_3" data-name="圖層 3">
    <g>
      <path class="cls-1" d="M12.4,57.02H3.21V0h8.84c5.7,0,10.48,4.56,10.48,10.12,0,4.49-2.99,8.41-7.41,9.76,8.41,1.85,13.76,10.12,13.76,18.75,0,10.48-7.2,18.39-16.46,18.39ZM6.84,19.39h5.2c4.28,0,6.49-3.92,6.49-9.27,0-5.77-2.92-9.48-6.49-9.48h-5.2v18.75ZM12.47,56.38c2.14,0,12.33-1,12.33-17.75,0-14.33-8.41-18.6-12.76-18.6h-5.2v36.35h5.63Z"/>
      <path class="cls-1" d="M87.09,57.02h-3.42l-16.82-36.71h-4.21v36.71h-3.42V0h9.34c5.42,0,9.76,4.63,9.76,10.19,0,4.77-3.28,9.05-8.13,10.05l16.89,36.78ZM62.65,19.67h5.92c3.99,0,6.06-4.13,6.06-9.48,0-5.77-2.71-9.55-6.06-9.55h-5.92v19.03Z"/>
      <path class="cls-1" d="M116.62,0h3.42v57.02h-3.42V0Z"/>
      <path class="cls-1" d="M183.83,28.58c0,9.27-2.57,20.46-9.76,26.09-2,1.57-4.13,2.35-6.34,2.35-5.42,0-8.7-4.28-11.33-8.55-3.35-5.49-4.78-12.62-4.78-19.67s1.64-14.4,4.78-20.24c2.21-4.13,6.2-8.55,11.4-8.55,4.63,0,8.55,3.21,11.9,9.62h-.85c-2.92-5.92-7.2-9.05-11.05-9.05-7.2,0-12.4,15.18-12.4,27.73,0,7.41,3.06,28.22,12.33,28.22,7.27,0,12.4-15.68,12.47-28.22,0-1.5-.07-2.92-.21-4.42h-12.19v-.64h15.75c.21,1.64.29,3.49.29,5.35Z"/>
      <path class="cls-1" d="M242.53,0l-.07,57.02h-3.35V19.53h-20.67v37.49h-3.42V0h3.42v18.89h20.67V0h3.42Z"/>
      <path class="cls-1" d="M286.55.64v56.38h-3.35V.64h-12.26v-.64h27.87v.64h-12.26Z"/>
      <path class="cls-1" d="M352.39,56.38v.64h-24.09V0h24.09v.64h-20.67v18.25h20.67v.64h-20.67v36.85h20.67Z"/>
      <path class="cls-1" d="M383.53,1.35v55.66h-.64V0h3.78l23.45,47.9V0h.64v57.02L383.53,1.35Z"/>
      <path class="cls-1" d="M23.24,163.68l-4.78-19.89-4.63,19.89L0,106.66h3.49l11.69,48.18,2.92-12.47-8.7-35.71h3.56l6.84,28.3,6.56-28.3h.64l-6.84,29.65,4.49,18.53,11.19-48.18h.64l-13.26,57.02Z"/>
      <path class="cls-1" d="M89.89,163.04v.64h-24.09v-57.02h24.09v.64h-20.67v18.25h20.67v.64h-20.67v36.85h20.67Z"/>
      <path class="cls-1" d="M133.58,130.4c4.63,2.64,11.83,7.77,11.83,16.89s-7.41,16.32-15.47,16.39c-8.48.07-12.83-8.2-12.83-8.2h.71s4.49,7.63,12.12,7.48c5.27-.07,12.76-4.06,12.76-14.97,0-7.06-6.56-11.69-10.19-13.68-6.91-3.85-14.47-7.7-14.47-15.25,0-6.42,5.49-12.33,12.4-12.4,7.27-.14,10.26,7.98,10.26,7.98h-.71s-3.07-7.63-9.48-7.48c-5.56.07-10.19,5.06-10.19,10.76s7.7,9.41,13.26,12.47Z"/>
      <path class="cls-1" d="M183.68,107.3v56.38h-3.35v-56.38h-12.26v-.64h27.87v.64h-12.26Z"/>
      <path class="cls-1" d="M8.2,270.34H3.21v-57.02h4.92c14.97,0,24.16,14.33,24.16,28.51s-9.91,28.51-24.09,28.51ZM8.13,269.7c12.9,0,20.46-16.11,20.46-27.87s-7.63-27.37-20.46-27.87h-1.5v55.74h1.5Z"/>
      <path class="cls-1" d="M63.29,213.33h3.42v57.02h-3.42v-57.02Z"/>
      <path class="cls-1" d="M112.57,237.06c4.63,2.64,11.83,7.77,11.83,16.89s-7.41,16.32-15.47,16.39c-8.48.07-12.83-8.2-12.83-8.2h.71s4.49,7.63,12.12,7.48c5.27-.07,12.76-4.06,12.76-14.97,0-7.06-6.56-11.69-10.19-13.68-6.91-3.85-14.47-7.7-14.47-15.25,0-6.41,5.49-12.33,12.4-12.4,7.27-.14,10.26,7.98,10.26,7.98h-.71s-3.07-7.63-9.48-7.48c-5.56.07-10.19,5.06-10.19,10.76s7.7,9.41,13.26,12.47Z"/>
      <path class="cls-1" d="M162.67,213.97v56.38h-3.35v-56.38h-12.26v-.64h27.87v.64h-12.26Z"/>
      <path class="cls-1" d="M232.29,270.34h-3.42l-16.82-36.71h-4.2v36.71h-3.42v-57.02h9.34c5.42,0,9.76,4.63,9.76,10.19,0,4.77-3.28,9.05-8.13,10.05l16.89,36.78ZM207.84,233h5.92c3.99,0,6.06-4.13,6.06-9.48,0-5.77-2.71-9.55-6.06-9.55h-5.92v19.03Z"/>
      <path class="cls-1" d="M261.82,213.33h3.42v57.02h-3.42v-57.02Z"/>
      <path class="cls-1" d="M326.56,260.72h.57c-3.56,6.41-7.91,9.55-12.9,9.55-11.26,0-17.53-15.61-17.53-28.15,0-7.13,1.71-14.4,5.13-20.24,2.49-4.28,6.84-8.55,12.4-8.55,4.99,0,9.41,3.28,12.9,9.62h-.71c-3.14-5.92-8.34-9.05-12.19-9.05-7.77,0-13.47,15.18-13.47,27.73s5.7,28.15,13.47,28.15c3.85,0,9.19-3.14,12.33-9.05Z"/>
      <path class="cls-1" d="M367.5,213.97v56.38h-3.35v-56.38h-12.26v-.64h27.87v.64h-12.26Z"/>
    </g>
  </g>
</svg>