<?xml version="1.0" encoding="UTF-8"?>
<svg id="_圖層_2" data-name="圖層 2" xmlns="http://www.w3.org/2000/svg" xmlns:xlink="http://www.w3.org/1999/xlink" viewBox="0 0 542.29 102.32">
  <defs>
    <style>
      .cls-1 {
        filter: url(#drop-shadow-1);
      }

      .cls-2 {
        fill: #fff;
      }
    </style>
    <filter id="drop-shadow-1" x="-33.52" y="-33.45" width="609" height="169" filterUnits="userSpaceOnUse">
      <feOffset dx="0" dy="0"/>
      <feGaussianBlur result="blur" stdDeviation="11"/>
      <feFlood flood-color="#1f4a4c" flood-opacity="1"/>
      <feComposite in2="blur" operator="in"/>
      <feComposite in="SourceGraphic"/>
    </filter>
  </defs>
  <g id="_圖層_3" data-name="圖層 3">
    <g class="cls-1">
      <path class="cls-2" d="M3.12,35.64H0V0h3.07c9.36,0,15.1,8.96,15.1,17.82s-6.19,17.82-15.06,17.82ZM3.07,35.24c8.06,0,12.79-10.07,12.79-17.42S11.09.71,3.07.4h-.94v34.84h.94Z"/>
      <path class="cls-2" d="M53.01,35.24v.4h-15.06V0h15.06v.4h-12.92v11.41h12.92v.4h-12.92v23.04h12.92Z"/>
      <path class="cls-2" d="M74.69,35.64h-2.14V0h15.06v.4h-12.92v11.41h12.92v.4h-12.92v23.44Z"/>
      <path class="cls-2" d="M106.94,0h2.14v35.64h-2.14V0Z"/>
      <path class="cls-2" d="M130.73.85v34.8h-.4V0h2.36l14.66,29.94V0h.4v35.64L130.73.85Z"/>
      <path class="cls-2" d="M183.81,35.24v.4h-15.06V0h15.06v.4h-12.92v11.41h12.92v.4h-12.92v23.04h12.92Z"/>
      <path class="cls-2" d="M237.66.4v35.24h-2.09V.4h-7.66v-.4h17.42v.4h-7.66Z"/>
      <path class="cls-2" d="M281.41,0l-.04,35.64h-2.09V12.21h-12.92v23.44h-2.14V0h2.14v11.81h12.92V0h2.14Z"/>
      <path class="cls-2" d="M317.46,35.24v.4h-15.06V0h15.06v.4h-12.92v11.41h12.92v.4h-12.92v23.04h12.92Z"/>
      <path class="cls-2" d="M0,102.32v-35.64h2.14v35.2h15.28v.45H0Z"/>
      <path class="cls-2" d="M51.39,101.92v.4h-15.06v-35.64h15.06v.4h-12.92v11.41h12.92v.4h-12.92v23.04h12.92Z"/>
      <path class="cls-2" d="M80.31,85.52h-6.28l-3.92,16.8h-.4l8.29-35.64,8.6,35.64h-2.18l-4.1-16.8ZM80.22,85.12l-3.12-12.92-2.99,12.92h6.1Z"/>
      <path class="cls-2" d="M108.52,102.32h-3.12v-35.64h3.07c9.36,0,15.1,8.96,15.1,17.82s-6.19,17.82-15.06,17.82ZM108.47,101.92c8.06,0,12.79-10.07,12.79-17.42s-4.77-17.11-12.79-17.42h-.94v34.84h.94Z"/>
      <path class="cls-2" d="M158.4,101.92v.4h-15.06v-35.64h15.06v.4h-12.92v11.41h12.92v.4h-12.92v23.04h12.92Z"/>
      <path class="cls-2" d="M195.37,102.32h-2.14l-10.51-22.95h-2.63v22.95h-2.14v-35.64h5.84c3.39,0,6.1,2.9,6.1,6.37,0,2.99-2.05,5.66-5.08,6.28l10.56,22.99ZM180.08,78.97h3.7c2.5,0,3.79-2.58,3.79-5.93,0-3.61-1.69-5.97-3.79-5.97h-3.7v11.9Z"/>
      <path class="cls-2" d="M222.33,81.51c2.9,1.65,7.4,4.86,7.4,10.56s-4.63,10.2-9.67,10.25c-5.3.04-8.02-5.12-8.02-5.12h.45s2.81,4.77,7.57,4.68c3.3-.04,7.98-2.54,7.98-9.36,0-4.41-4.1-7.31-6.37-8.55-4.32-2.41-9.04-4.81-9.04-9.54,0-4.01,3.43-7.71,7.75-7.75,4.54-.09,6.42,4.99,6.42,4.99h-.45s-1.92-4.77-5.93-4.68c-3.48.04-6.37,3.16-6.37,6.73s4.81,5.88,8.29,7.8Z"/>
      <path class="cls-2" d="M266.2,66.67l-.04,35.64h-2.09v-23.44h-12.92v23.44h-2.14v-35.64h2.14v11.81h12.92v-11.81h2.14Z"/>
      <path class="cls-2" d="M287.17,66.67h2.14v35.64h-2.14v-35.64Z"/>
      <path class="cls-2" d="M312.7,79.37v22.95h-2.14v-35.64h5.84c3.39,0,6.1,2.9,6.1,6.37,0,3.07-2.27,6.33-5.75,6.33h-4.05ZM312.7,78.97h3.7c2.5,0,3.79-2.58,3.79-5.93,0-3.61-1.69-5.97-3.79-5.97h-3.7v11.9Z"/>
      <path class="cls-2" d="M383.76,66.67l-8.24,35.64-8.64-35.64h2.18l7.31,30.12,7-30.12h.4Z"/>
      <path class="cls-2" d="M402.6,66.67h2.14v35.64h-2.14v-35.64Z"/>
      <path class="cls-2" d="M433.85,81.51c2.9,1.65,7.4,4.86,7.4,10.56s-4.63,10.2-9.67,10.25c-5.3.04-8.02-5.12-8.02-5.12h.45s2.81,4.77,7.57,4.68c3.3-.04,7.98-2.54,7.98-9.36,0-4.41-4.1-7.31-6.37-8.55-4.32-2.41-9.04-4.81-9.04-9.54,0-4.01,3.43-7.71,7.75-7.75,4.54-.09,6.42,4.99,6.42,4.99h-.45s-1.92-4.77-5.93-4.68c-3.48.04-6.37,3.16-6.37,6.73s4.81,5.88,8.29,7.8Z"/>
      <path class="cls-2" d="M460.51,66.67h2.14v35.64h-2.14v-35.64Z"/>
      <path class="cls-2" d="M504.68,84.67c0,7.71-3.65,17.64-10.92,17.64-7.71,0-11-11.18-11-17.64,0-7.71,3.43-18,11-18s10.92,11.58,10.92,18ZM502.19,84.36c0-7.75-3.3-17.38-8.47-17.33-5.35.04-8.47,9.58-8.42,17.33.04,7.89,3.3,17.6,8.51,17.6s8.38-9.89,8.38-17.6Z"/>
      <path class="cls-2" d="M525.27,67.52v34.8h-.4v-35.64h2.36l14.66,29.94v-29.94h.4v35.64l-17.02-34.8Z"/>
    </g>
  </g>
</svg>