<?xml version="1.0" encoding="UTF-8"?>
<svg id="_圖層_2" data-name="圖層 2" xmlns="http://www.w3.org/2000/svg" viewBox="0 0 619.98 35.65">
  <defs>
    <style>
      .cls-1 {
        fill: #027484;
      }
    </style>
  </defs>
  <g id="_圖層_3" data-name="圖層 3">
    <g>
      <path class="cls-1" d="M18.67,0v35.64h-2.09V1.74l-8.06,33.91L.4,1.69v33.95h-.4V0h2.18l7.22,30.21L16.57,0h2.09Z"/>
      <path class="cls-1" d="M54.72,35.24v.4h-15.06V0h15.06v.4h-12.92v11.41h12.92v.4h-12.92v23.04h12.92Z"/>
      <path class="cls-1" d="M82.44.4v35.24h-2.09V.4h-7.66V0h17.42v.4h-7.66Z"/>
      <path class="cls-1" d="M126.41,35.65h-2.14l-10.52-22.95h-2.63v22.95h-2.14V0h5.84c3.39,0,6.1,2.9,6.1,6.37,0,2.99-2.05,5.66-5.08,6.28l10.56,22.99ZM111.13,12.3h3.7c2.5,0,3.79-2.58,3.79-5.93,0-3.61-1.69-5.97-3.79-5.97h-3.7v11.9Z"/>
      <path class="cls-1" d="M164.2,18c0,7.71-3.65,17.64-10.92,17.64-7.71,0-11-11.18-11-17.64C142.27,10.29,145.71,0,153.28,0s10.92,11.58,10.92,18ZM161.7,17.69c0-7.75-3.3-17.38-8.47-17.33-5.35.04-8.47,9.58-8.42,17.33.04,7.89,3.3,17.6,8.51,17.6s8.38-9.89,8.38-17.6Z"/>
      <path class="cls-1" d="M226.43,35.65l-6.91-16.31-7.75,16.31h-.45l7.98-16.8L211.32,0h2.27l6.91,16.31L228.3,0h.4l-7.98,16.8,7.98,18.85h-2.27Z"/>
      <path class="cls-1" d="M248.03,0h2.14v35.64h-2.14V0Z"/>
      <path class="cls-1" d="M290.09,0v35.64h-2.09V1.74l-8.06,33.91-8.11-33.95v33.95h-.4V0h2.18l7.22,30.21L288,0h2.09Z"/>
      <path class="cls-1" d="M326.15,35.24v.4h-15.06V0h15.06v.4h-12.92v11.41h12.92v.4h-12.92v23.04h12.92Z"/>
      <path class="cls-1" d="M346.09.85v34.8h-.4V0h2.36l14.66,29.94V0h.4v35.64L346.09.85Z"/>
      <path class="cls-1" d="M418.75,14.84c2.9,1.65,7.4,4.86,7.4,10.56s-4.63,10.2-9.67,10.25c-5.3.04-8.02-5.12-8.02-5.12h.45s2.81,4.77,7.57,4.68c3.3-.04,7.98-2.54,7.98-9.36,0-4.41-4.1-7.31-6.37-8.55-4.32-2.41-9.04-4.81-9.04-9.54,0-4.01,3.43-7.71,7.75-7.75,4.54-.09,6.42,4.99,6.42,4.99h-.45s-1.92-4.77-5.93-4.68c-3.48.04-6.37,3.16-6.37,6.73s4.81,5.88,8.29,7.8Z"/>
      <path class="cls-1" d="M450.58.4v35.24h-2.09V.4h-7.66V0h17.42v.4h-7.66Z"/>
      <path class="cls-1" d="M482.45,18.85h-6.28l-3.92,16.8h-.4L480.14,0l8.6,35.64h-2.18l-4.1-16.8ZM482.36,18.45l-3.12-12.92-2.99,12.92h6.1Z"/>
      <path class="cls-1" d="M511.65.4v35.24h-2.09V.4h-7.66V0h17.42v.4h-7.66Z"/>
      <path class="cls-1" d="M538.2,0h2.14v35.64h-2.14V0Z"/>
      <path class="cls-1" d="M582.37,18c0,7.71-3.65,17.64-10.92,17.64-7.71,0-11-11.18-11-17.64C560.45,10.29,563.88,0,571.46,0s10.92,11.58,10.92,18ZM579.88,17.69c0-7.75-3.3-17.38-8.47-17.33-5.35.04-8.47,9.58-8.42,17.33.04,7.89,3.3,17.6,8.51,17.6s8.38-9.89,8.38-17.6Z"/>
      <path class="cls-1" d="M602.96.85v34.8h-.4V0h2.36l14.66,29.94V0h.4v35.64L602.96.85Z"/>
    </g>
  </g>
</svg>