<?xml version="1.0" encoding="UTF-8"?>
<svg id="_圖層_2" data-name="圖層 2" xmlns="http://www.w3.org/2000/svg" viewBox="0 0 452.42 270.35">
  <defs>
    <style>
      .cls-1 {
        fill: #027484;
      }
    </style>
  </defs>
  <g id="_圖層_3" data-name="圖層 3">
    <g>
      <path class="cls-1" d="M28.15,56.38v.64H4.06V0h24.09v.64H7.48v18.25h20.67v.64H7.48v36.85h20.67Z"/>
      <path class="cls-1" d="M58.65,57.02V0h3.42v56.31h24.45v.71h-27.87Z"/>
      <path class="cls-1" d="M140.14,56.38v.64h-24.09V0h24.09v.64h-20.67v18.25h20.67v.64h-20.67v36.85h20.67Z"/>
      <path class="cls-1" d="M195.76,0l-13.19,57.02L168.75,0h3.49l11.69,48.18L195.12,0h.64Z"/>
      <path class="cls-1" d="M235.45,30.15h-10.05l-6.27,26.87h-.64L231.74,0l13.76,57.02h-3.49l-6.56-26.87ZM235.3,29.51l-4.99-20.67-4.78,20.67h9.76Z"/>
      <path class="cls-1" d="M281.29.64v56.38h-3.35V.64h-12.26v-.64h27.87v.64h-12.26Z"/>
      <path class="cls-1" d="M323.04,0h3.42v57.02h-3.42V0Z"/>
      <path class="cls-1" d="M392.98,28.79c0,12.33-5.84,28.22-17.46,28.22-12.33,0-17.6-17.89-17.6-28.22,0-12.33,5.49-28.79,17.6-28.79s17.46,18.53,17.46,28.79ZM388.99,28.3c0-12.4-5.27-27.8-13.54-27.73-8.55.07-13.54,15.32-13.47,27.73.07,12.62,5.27,28.15,13.61,28.15s13.4-15.82,13.4-28.15Z"/>
      <path class="cls-1" d="M425.19,1.35v55.67h-.64V0h3.78l23.45,47.9V0h.64v57.02L425.19,1.35Z"/>
      <path class="cls-1" d="M37.35,135.46c0,12.33-5.84,28.22-17.46,28.22-12.33,0-17.6-17.89-17.6-28.22,0-12.33,5.49-28.79,17.6-28.79s17.46,18.53,17.46,28.79ZM33.36,134.96c0-12.4-5.27-27.8-13.54-27.73-8.55.07-13.54,15.32-13.47,27.73.07,12.62,5.27,28.15,13.61,28.15s13.4-15.82,13.4-28.15Z"/>
      <path class="cls-1" d="M72.34,163.68h-3.42v-57.02h24.09v.64h-20.67v18.25h20.67v.64h-20.67v37.49Z"/>
      <path class="cls-1" d="M16.46,237.06c4.63,2.64,11.83,7.77,11.83,16.89s-7.41,16.32-15.47,16.39c-8.48.07-12.83-8.2-12.83-8.2h.71s4.49,7.63,12.12,7.48c5.27-.07,12.76-4.06,12.76-14.97,0-7.06-6.56-11.69-10.19-13.68-6.91-3.85-14.47-7.7-14.47-15.25,0-6.41,5.49-12.33,12.4-12.4,7.27-.14,10.26,7.98,10.26,7.98h-.71s-3.06-7.63-9.48-7.48c-5.56.07-10.19,5.06-10.19,10.76s7.7,9.41,13.26,12.47Z"/>
      <path class="cls-1" d="M61.8,233.64v36.71h-3.42v-57.02h9.34c5.42,0,9.76,4.63,9.76,10.19,0,4.92-3.64,10.12-9.19,10.12h-6.49ZM61.8,233h5.92c3.99,0,6.06-4.13,6.06-9.48,0-5.77-2.71-9.55-6.06-9.55h-5.92v19.03Z"/>
      <path class="cls-1" d="M131.7,269.7v.64h-24.09v-57.02h24.09v.64h-20.67v18.25h20.67v.64h-20.67v36.85h20.67Z"/>
      <path class="cls-1" d="M186.29,269.7v.64h-24.09v-57.02h24.09v.64h-20.67v18.25h20.67v.64h-20.67v36.85h20.67Z"/>
      <path class="cls-1" d="M221.78,270.34h-4.99v-57.02h4.92c14.97,0,24.16,14.33,24.16,28.51s-9.91,28.51-24.09,28.51ZM221.71,269.7c12.9,0,20.46-16.11,20.46-27.87s-7.63-27.37-20.46-27.87h-1.5v55.74h1.5Z"/>
    </g>
  </g>
</svg>