<?xml version="1.0" encoding="UTF-8"?>
<svg id="_圖層_2" data-name="圖層 2" xmlns="http://www.w3.org/2000/svg" viewBox="0 0 591.2 163.68">
  <defs>
    <style>
      .cls-1 {
        fill: #027484;
      }
    </style>
  </defs>
  <g id="_圖層_3" data-name="圖層 3">
    <g>
      <path class="cls-1" d="M3.42,20.31v36.71H0V0h9.34c5.42,0,9.76,4.63,9.76,10.19,0,4.92-3.64,10.12-9.19,10.12H3.42ZM3.42,19.67h5.92c3.99,0,6.06-4.13,6.06-9.48C15.39,4.42,12.69.64,9.34.64H3.42v19.03Z"/>
      <path class="cls-1" d="M82.01,28.79c0,12.33-5.84,28.22-17.46,28.22-12.33,0-17.6-17.89-17.6-28.22,0-12.33,5.49-28.79,17.6-28.79s17.46,18.53,17.46,28.79ZM78.02,28.29c0-12.4-5.27-27.8-13.54-27.73-8.55.07-13.54,15.32-13.47,27.73.07,12.62,5.27,28.15,13.61,28.15s13.4-15.82,13.4-28.15Z"/>
      <path class="cls-1" d="M137.67,56.38v.64h-24.09V0h24.09v.64h-20.67v18.25h20.67v.64h-20.67v36.85h20.67Z"/>
      <path class="cls-1" d="M181.37.64v56.38h-3.35V.64h-12.26v-.64h27.87v.64h-12.26Z"/>
      <path class="cls-1" d="M223.12,0h3.42v57.02h-3.42V0Z"/>
      <path class="cls-1" d="M287.85,47.4h.57c-3.56,6.42-7.91,9.55-12.9,9.55-11.26,0-17.53-15.61-17.53-28.15,0-7.13,1.71-14.4,5.13-20.24,2.49-4.28,6.84-8.55,12.4-8.55,4.99,0,9.41,3.28,12.9,9.62h-.71c-3.14-5.92-8.34-9.05-12.19-9.05-7.77,0-13.47,15.18-13.47,27.73s5.7,28.15,13.47,28.15c3.85,0,9.19-3.14,12.33-9.05Z"/>
      <path class="cls-1" d="M0,163.68v-57.02h3.42v56.31h24.45v.71H0Z"/>
      <path class="cls-1" d="M57.4,106.66h3.42v57.02h-3.42v-57.02Z"/>
      <path class="cls-1" d="M117.16,106.66l-13.19,57.02-13.83-57.02h3.49l11.69,48.18,11.19-48.18h.64Z"/>
      <path class="cls-1" d="M146.58,106.66h3.42v57.02h-3.42v-57.02Z"/>
      <path class="cls-1" d="M183.92,108.02v55.67h-.64v-57.02h3.78l23.45,47.9v-47.9h.64v57.02l-27.23-55.67Z"/>
      <path class="cls-1" d="M274.45,135.24c0,9.27-2.57,20.46-9.76,26.09-2,1.57-4.13,2.35-6.34,2.35-5.42,0-8.7-4.28-11.33-8.55-3.35-5.49-4.78-12.62-4.78-19.67s1.64-14.4,4.78-20.24c2.21-4.13,6.2-8.55,11.4-8.55,4.63,0,8.55,3.21,11.9,9.62h-.86c-2.92-5.92-7.2-9.05-11.05-9.05-7.2,0-12.4,15.18-12.4,27.73,0,7.41,3.06,28.22,12.33,28.22,7.27,0,12.4-15.68,12.47-28.22,0-1.5-.07-2.92-.21-4.42h-12.19v-.64h15.75c.21,1.64.29,3.49.29,5.35Z"/>
      <path class="cls-1" d="M362.82,130.4c4.63,2.64,11.83,7.77,11.83,16.89s-7.41,16.32-15.47,16.39c-8.48.07-12.83-8.2-12.83-8.2h.71s4.49,7.63,12.12,7.48c5.27-.07,12.76-4.06,12.76-14.97,0-7.06-6.56-11.69-10.19-13.68-6.91-3.85-14.47-7.7-14.47-15.25,0-6.42,5.49-12.33,12.4-12.4,7.27-.14,10.26,7.98,10.26,7.98h-.71s-3.06-7.63-9.48-7.48c-5.56.07-10.19,5.06-10.19,10.76s7.7,9.41,13.26,12.47Z"/>
      <path class="cls-1" d="M412.92,107.3v56.38h-3.35v-56.38h-12.26v-.64h27.87v.64h-12.26Z"/>
      <path class="cls-1" d="M480.44,106.66l-12.19,20.67v36.35h-3.42v-36.35l-12.19-20.67h3.42l11.9,20.24,11.9-20.24h.57Z"/>
      <path class="cls-1" d="M509.71,163.68v-57.02h3.42v56.31h24.45v.71h-27.87Z"/>
      <path class="cls-1" d="M591.2,163.04v.64h-24.09v-57.02h24.09v.64h-20.67v18.25h20.67v.64h-20.67v36.85h20.67Z"/>
    </g>
  </g>
</svg>