<?xml version="1.0" encoding="UTF-8"?>
<svg id="_圖層_2" data-name="圖層 2" xmlns="http://www.w3.org/2000/svg" viewBox="0 0 361.34 104.85">
  <defs>
    <style>
      .cls-1 {
        fill: #fff;
      }
    </style>
  </defs>
  <g id="_圖層_3" data-name="圖層 3">
    <g>
      <path class="cls-1" d="M19.13,0v36.52h-2.15V1.78l-8.26,34.74L.41,1.74v34.79h-.41V0h2.24l7.4,30.95L16.98,0h2.15Z"/>
      <path class="cls-1" d="M48.96,19.31h-6.44l-4.02,17.21h-.41L46.59,0l8.81,36.52h-2.24l-4.2-17.21ZM48.87,18.9l-3.2-13.24-3.06,13.24h6.25Z"/>
      <path class="cls-1" d="M75.06.87v35.66h-.41V0h2.42l15.02,30.68V0h.41v36.52L75.06.87Z"/>
      <path class="cls-1" d="M122.04,15.2c2.97,1.69,7.58,4.98,7.58,10.82s-4.75,10.46-9.91,10.5c-5.43.05-8.22-5.25-8.22-5.25h.46s2.88,4.88,7.76,4.79c3.38-.05,8.17-2.6,8.17-9.59,0-4.52-4.2-7.49-6.53-8.77-4.43-2.46-9.27-4.93-9.27-9.77C112.08,3.84,115.6.05,120.03,0c4.66-.09,6.57,5.11,6.57,5.11h-.46s-1.96-4.88-6.07-4.79c-3.56.05-6.53,3.24-6.53,6.89s4.93,6.03,8.49,7.99Z"/>
      <path class="cls-1" d="M149.34,0h2.19v36.52h-2.19V0Z"/>
      <path class="cls-1" d="M194.58,18.45c0,7.9-3.74,18.08-11.19,18.08-7.9,0-11.28-11.46-11.28-18.08C172.12,10.55,175.63,0,183.39,0s11.19,11.87,11.19,18.44ZM192.02,18.13c0-7.94-3.38-17.81-8.67-17.76-5.48.05-8.67,9.82-8.63,17.76.05,8.08,3.38,18.03,8.72,18.03s8.58-10.14,8.58-18.03Z"/>
      <path class="cls-1" d="M215.65.87v35.66h-.41V0h2.42l15.02,30.68V0h.41v36.52L215.65.87Z"/>
      <path class="cls-1" d="M297.69,14.61h.46c0,5.16-.64,10.36-2.47,15.43l3.2,6.48h-2.6s-1.6-3.29-2.01-4.02c-1.78,2.74-3.74,4.11-6.16,4.11-4.66,0-7.85-5.52-7.85-10.41s2.69-8.63,6.39-10.82c-1.6-3.84-2.42-6.71-2.42-8.58C284.22,3.24,286.37,0,289.24,0c2.69,0,4.89,2.19,4.89,6.03s-4.02,7.53-5.66,8.72c0,0,6.57,14.2,6.89,14.88,1.41-3.65,2.33-9.13,2.33-15.02ZM282.76,25.07c0,5.3,2.01,10.73,6.07,10.73,1.69,0,4.02-1.78,5.25-3.74-2.65-5.48-5.39-11.6-7.3-16.34-1.69,1.64-4.02,3.61-4.02,9.36ZM292.49,5.8c0-3.33-1.78-5.52-3.29-5.52-2.33,0-3.1,2.6-3.1,4.15,0,1.23.46,5.93,2.28,9.95,4.02-3.97,4.11-6.89,4.11-8.58Z"/>
      <path class="cls-1" d="M19.13,68.33v36.52h-2.15v-34.74l-8.26,34.74L.41,70.06v34.79h-.41v-36.52h2.24l7.4,30.95,7.35-30.95h2.15Z"/>
      <path class="cls-1" d="M48.96,87.64h-6.44l-4.02,17.21h-.41l8.49-36.52,8.81,36.52h-2.24l-4.2-17.21ZM48.87,87.23l-3.2-13.24-3.06,13.24h6.25Z"/>
      <path class="cls-1" d="M83.39,83.53c2.97,1.69,7.58,4.98,7.58,10.82s-4.75,10.45-9.91,10.5c-5.43.05-8.22-5.25-8.22-5.25h.46s2.88,4.88,7.76,4.79c3.38-.05,8.17-2.6,8.17-9.59,0-4.52-4.2-7.49-6.53-8.77-4.43-2.46-9.27-4.93-9.27-9.77,0-4.11,3.52-7.9,7.94-7.94,4.66-.09,6.57,5.11,6.57,5.11h-.46s-1.96-4.88-6.07-4.79c-3.56.05-6.53,3.24-6.53,6.89s4.93,6.03,8.49,7.99Z"/>
      <path class="cls-1" d="M115.98,68.74v36.11h-2.15v-36.11h-7.85v-.41h17.85v.41h-7.85Z"/>
      <path class="cls-1" d="M158.6,104.44v.41h-15.43v-36.52h15.43v.41h-13.24v11.69h13.24v.41h-13.24v23.6h13.24Z"/>
      <path class="cls-1" d="M196.46,104.85h-2.19l-10.77-23.51h-2.69v23.51h-2.19v-36.52h5.98c3.47,0,6.25,2.97,6.25,6.53,0,3.06-2.1,5.8-5.21,6.44l10.82,23.56ZM180.8,80.93h3.79c2.56,0,3.88-2.65,3.88-6.07,0-3.7-1.74-6.12-3.88-6.12h-3.79v12.19Z"/>
      <path class="cls-1" d="M218,81.34v23.51h-2.19v-36.52h5.98c3.47,0,6.25,2.97,6.25,6.53,0,3.15-2.33,6.48-5.89,6.48h-4.15ZM218,80.93h3.79c2.56,0,3.88-2.65,3.88-6.07,0-3.7-1.74-6.12-3.88-6.12h-3.79v12.19Z"/>
      <path class="cls-1" d="M247.81,68.33h2.19v36.52h-2.19v-36.52Z"/>
      <path class="cls-1" d="M287.19,104.44v.41h-15.43v-36.52h15.43v.41h-13.24v11.69h13.24v.41h-13.24v23.6h13.24Z"/>
      <path class="cls-1" d="M325.54,98.69h.37c-2.28,4.11-5.07,6.12-8.26,6.12-7.21,0-11.23-10-11.23-18.03,0-4.57,1.1-9.22,3.29-12.97,1.6-2.74,4.38-5.48,7.94-5.48,3.2,0,6.03,2.1,8.26,6.16h-.46c-2.01-3.79-5.34-5.8-7.81-5.8-4.98,0-8.63,9.72-8.63,17.76s3.65,18.03,8.63,18.03c2.47,0,5.89-2.01,7.9-5.8Z"/>
      <path class="cls-1" d="M361.34,104.44v.41h-15.43v-36.52h15.43v.41h-13.24v11.69h13.24v.41h-13.24v23.6h13.24Z"/>
    </g>
  </g>
</svg>