<?xml version="1.0" encoding="UTF-8"?>
<svg id="_圖層_2" data-name="圖層 2" xmlns="http://www.w3.org/2000/svg" viewBox="0 0 644.69 163.68">
  <defs>
    <style>
      .cls-1 {
        fill: #027484;
      }
    </style>
  </defs>
  <g id="_圖層_3" data-name="圖層 3">
    <g>
      <path class="cls-1" d="M29.86,47.4h.57c-3.56,6.41-7.91,9.55-12.9,9.55C6.27,56.95,0,41.34,0,28.79c0-7.13,1.71-14.4,5.13-20.24C7.63,4.28,11.97,0,17.53,0,22.52,0,26.94,3.28,30.43,9.62h-.71C26.58,3.71,21.38.57,17.53.57,9.76.57,4.06,15.75,4.06,28.3s5.7,28.15,13.47,28.15c3.85,0,9.19-3.13,12.33-9.05Z"/>
      <path class="cls-1" d="M93.16,28.79c0,12.33-5.84,28.22-17.46,28.22-12.33,0-17.6-17.89-17.6-28.22C58.09,16.46,63.58,0,75.69,0s17.46,18.53,17.46,28.79ZM89.17,28.3c0-12.4-5.27-27.8-13.54-27.73-8.55.07-13.54,15.32-13.47,27.73.07,12.62,5.27,28.15,13.61,28.15s13.4-15.82,13.4-28.15Z"/>
      <path class="cls-1" d="M125.37,1.36v55.66h-.64V0h3.78l23.45,47.89V0h.64v57.02L125.37,1.36Z"/>
      <path class="cls-1" d="M198.05,23.73c4.63,2.64,11.83,7.77,11.83,16.89s-7.41,16.32-15.47,16.39c-8.48.07-12.83-8.2-12.83-8.2h.71s4.49,7.62,12.12,7.48c5.27-.07,12.76-4.06,12.76-14.97,0-7.06-6.56-11.69-10.19-13.69-6.91-3.85-14.47-7.7-14.47-15.25C182.51,5.99,188,.07,194.91,0c7.27-.14,10.26,7.98,10.26,7.98h-.71s-3.07-7.63-9.48-7.48c-5.56.07-10.19,5.06-10.19,10.76s7.7,9.41,13.26,12.47Z"/>
      <path class="cls-1" d="M248.15.64v56.38h-3.35V.64h-12.26V0h27.87v.64h-12.26Z"/>
      <path class="cls-1" d="M317.77,57.02h-3.42l-16.82-36.71h-4.21v36.71h-3.42V0h9.34c5.42,0,9.76,4.63,9.76,10.19,0,4.78-3.28,9.05-8.12,10.05l16.89,36.78ZM293.32,19.67h5.91c3.99,0,6.06-4.13,6.06-9.48,0-5.77-2.71-9.55-6.06-9.55h-5.91v19.03Z"/>
      <path class="cls-1" d="M371.94,40.06s-.07,16.96-13.97,16.96-13.97-16.96-13.97-16.96V0h3.42v39.98c0,7.27.14,16.39,10.55,16.39,12.9,0,13.26-16.32,13.26-16.32V0h.71v40.05Z"/>
      <path class="cls-1" d="M432.62,47.4h.57c-3.56,6.41-7.91,9.55-12.9,9.55-11.26,0-17.53-15.61-17.53-28.15,0-7.13,1.71-14.4,5.13-20.24C410.39,4.28,414.73,0,420.29,0c4.99,0,9.41,3.28,12.9,9.62h-.71c-3.14-5.92-8.34-9.05-12.19-9.05-7.77,0-13.47,15.18-13.47,27.73s5.7,28.15,13.47,28.15c3.85,0,9.19-3.13,12.33-9.05Z"/>
      <path class="cls-1" d="M473.56.64v56.38h-3.35V.64h-12.26V0h27.87v.64h-12.26Z"/>
      <path class="cls-1" d="M515.31,0h3.42v57.02h-3.42V0Z"/>
      <path class="cls-1" d="M585.25,28.79c0,12.33-5.84,28.22-17.46,28.22-12.33,0-17.6-17.89-17.6-28.22C550.18,16.46,555.67,0,567.79,0s17.46,18.53,17.46,28.79ZM581.26,28.3c0-12.4-5.27-27.8-13.54-27.73-8.55.07-13.54,15.32-13.47,27.73.07,12.62,5.27,28.15,13.61,28.15s13.4-15.82,13.4-28.15Z"/>
      <path class="cls-1" d="M617.46,1.36v55.66h-.64V0h3.78l23.45,47.89V0h.64v57.02l-27.23-55.66Z"/>
      <path class="cls-1" d="M10.98,163.68H1.78v-57.02h8.84c5.7,0,10.48,4.56,10.48,10.12,0,4.49-2.99,8.41-7.41,9.76,8.41,1.85,13.76,10.12,13.76,18.75,0,10.48-7.2,18.39-16.46,18.39ZM5.42,126.05h5.2c4.28,0,6.49-3.92,6.49-9.27,0-5.77-2.92-9.48-6.49-9.48h-5.2v18.75ZM11.05,163.04c2.14,0,12.33-1,12.33-17.75,0-14.33-8.41-18.6-12.76-18.6h-5.2v36.35h5.63Z"/>
      <path class="cls-1" d="M85.67,163.68h-3.42l-16.82-36.71h-4.21v36.71h-3.42v-57.02h9.34c5.42,0,9.76,4.63,9.76,10.19,0,4.78-3.28,9.05-8.12,10.05l16.89,36.78ZM61.22,126.34h5.92c3.99,0,6.06-4.13,6.06-9.48,0-5.77-2.71-9.55-6.06-9.55h-5.92v19.03Z"/>
      <path class="cls-1" d="M130.3,136.81h-10.05l-6.27,26.87h-.64l13.26-57.02,13.76,57.02h-3.49l-6.56-26.87ZM130.16,136.17l-4.99-20.67-4.78,20.67h9.76Z"/>
      <path class="cls-1" d="M170.36,108.02v55.67h-.64v-57.02h3.78l23.45,47.9v-47.9h.64v57.02l-27.23-55.67Z"/>
      <path class="cls-1" d="M235.47,163.68h-4.99v-57.02h4.92c14.97,0,24.16,14.33,24.16,28.51s-9.91,28.51-24.09,28.51ZM235.4,163.04c12.9,0,20.46-16.11,20.46-27.87s-7.63-27.37-20.46-27.87h-1.5v55.74h1.5Z"/>
    </g>
  </g>
</svg>